<svg height="512pt" viewBox="0 0 512 512" width="512pt" xmlns="http://www.w3.org/2000/svg"><path d="m118.855469 91.429688v18.285156h274.289062v-18.285156zm0 0"/><path d="m82.285156 27.429688c-5.050781 0-9.140625 4.09375-9.140625 9.140624v9.144532h18.285157v-9.144532c0-5.046874-4.09375-9.140624-9.144532-9.140624zm0 0"/><path d="m64 64h36.570312v45.714844h-36.570312zm0 0"/><path d="m18.285156 91.429688h27.429688v18.285156h-27.429688zm0 0"/><path d="m9.144531 466.285156h493.710938c5.050781 0 9.144531 4.09375 9.144531 9.144532v27.425781c0 5.050781-4.09375 9.144531-9.144531 9.144531h-493.710938c-5.050781 0-9.144531-4.09375-9.144531-9.144531v-27.425781c0-5.050782 4.09375-9.144532 9.144531-9.144532zm0 0"/><path d="m429.714844 27.429688c-5.050782 0-9.144532 4.09375-9.144532 9.140624v9.144532h18.285157v-9.144532c0-5.046874-4.089844-9.140624-9.140625-9.140624zm0 0"/><path d="m466.285156 91.429688h27.429688v18.285156h-27.429688zm0 0"/><path d="m411.429688 64h36.570312v45.714844h-36.570312zm0 0"/><path d="m347.429688 73.144531v-36.574219c0-20.195312-16.375-36.570312-36.574219-36.570312h-109.710938c-20.199219 0-36.574219 16.375-36.574219 36.570312v36.574219h18.285157v-27.429687c0-15.148438 12.28125-27.429688 27.429687-27.429688h91.429688c15.148437 0 27.429687 12.28125 27.429687 27.429688v27.429687zm0 0"/><path d="m91.429688 292.570312v18.285157h18.285156v-18.285157c0-5.046874 4.09375-9.140624 9.140625-9.140624h18.289062v-18.285157h-18.289062c-5.046875 0-9.140625-4.09375-9.140625-9.144531v-18.285156h-18.285156v18.285156c0 5.050781-4.09375 9.144531-9.144532 9.144531h-18.285156v18.285157h18.285156c5.050782 0 9.144532 4.09375 9.144532 9.140624zm0 0"/><path d="m263.414062 323.804688c1.71875 2.378906 2.1875 5.441406 1.261719 8.226562l-12.105469 36.324219 47.910157-57.5h-23.964844c-5.777344.003906-11.21875-2.730469-14.667969-7.367188-3.453125-4.632812-4.507812-10.628906-2.847656-16.164062l12.140625-40.46875h-35.765625l-21.945312 73.144531h42.570312c2.9375.003906 5.699219 1.417969 7.414062 3.804688zm0 0"/><path d="m374.855469 265.144531h73.144531v18.292969h-73.144531zm0 0"/><path d="m9.144531 173.714844h493.710938c5.050781 0 9.144531-4.09375 9.144531-9.144532v-27.425781c0-5.050781-4.09375-9.144531-9.144531-9.144531h-493.710938c-5.050781 0-9.144531 4.09375-9.144531 9.144531v27.425781c0 5.050782 4.09375 9.144532 9.144531 9.144532zm0 0"/><path d="m493.714844 448v-256h-475.429688v256zm-137.144532-182.855469c0-10.101562 8.1875-18.289062 18.285157-18.289062h73.144531c10.097656 0 18.285156 8.1875 18.285156 18.289062v18.285157c0 10.097656-8.1875 18.285156-18.285156 18.285156h-73.144531c-10.097657 0-18.285157-8.1875-18.285157-18.285156zm-160.65625 49.609375 21.941407-73.144531c2.289062-7.761719 9.429687-13.074219 17.519531-13.039063h35.765625c5.777344 0 11.21875 2.734376 14.667969 7.367188 3.453125 4.636719 4.507812 10.632812 2.851562 16.167969l-12.144531 40.464843h23.964844c7.089843.007813 13.539062 4.113282 16.546875 10.535157 3.003906 6.425781 2.027344 14.003906-2.511719 19.453125l-78.921875 94.722656c-2.8125 3.375-7.632812 4.269531-11.472656 2.132812-3.839844-2.136718-5.613282-6.703124-4.226563-10.875l23.425781-70.253906h-29.890624c-5.777344 0-11.21875-2.730468-14.667969-7.367187s-4.507813-10.628907-2.847657-16.164063zm-22.199218 105.816406c0 5.050782-4.09375 9.144532-9.144532 9.144532h-64c-5.046874 0-9.140624-4.09375-9.140624-9.144532 0-5.046874 4.09375-9.140624 9.140624-9.140624h64c5.050782 0 9.144532 4.09375 9.144532 9.140624zm-128-155.425781c0-10.101562 8.1875-18.289062 18.285156-18.289062h9.144531v-9.140625c0-10.097656 8.183594-18.285156 18.285157-18.285156h18.285156c10.097656 0 18.285156 8.1875 18.285156 18.285156v9.140625h9.144531c10.097657 0 18.285157 8.1875 18.285157 18.289062v18.285157c0 10.097656-8.1875 18.285156-18.285157 18.285156h-9.144531v9.140625c0 10.101562-8.1875 18.289062-18.285156 18.289062h-18.285156c-10.101563 0-18.285157-8.1875-18.285157-18.289062v-9.140625h-9.144531c-10.097656 0-18.285156-8.1875-18.285156-18.285156zm0 146.285157h18.285156c5.050781 0 9.144531 4.09375 9.144531 9.140624 0 5.050782-4.09375 9.144532-9.144531 9.144532h-18.285156c-5.050782 0-9.144532-4.09375-9.144532-9.144532 0-5.046874 4.09375-9.140624 9.144532-9.140624zm0 0"/></svg>