<?xml version="1.0" encoding="iso-8859-1"?>
<!-- Generator: Adobe Illustrator 19.0.0, SVG Export Plug-In . SVG Version: 6.00 Build 0)  -->
<svg xmlns="http://www.w3.org/2000/svg" xmlns:xlink="http://www.w3.org/1999/xlink" version="1.1" id="Layer_1" x="0px" y="0px" viewBox="0 0 512 512" style="enable-background:new 0 0 512 512;" xml:space="preserve" width="512" height="512">
<g>
	<path d="M326.647,164.127c-5.999,6-5.999,15.3,0,21.299c5.7,5.7,15.3,5.7,21,0c6-5.999,6-15.298,0-21.299   C342.563,158.473,331.692,158.521,326.647,164.127z"/>
	<path d="M496.147,15.626c-15.3-15.3-38.699-19.501-66.301-12.001c-24.3,6.601-49.799,22.2-71.4,43.801   c-8.699,8.699-16.199,17.999-22.798,27.599h-89.702L0,317.126L194.648,512l242.399-246.175v-89.7   c-20.999,14.401-43.499,23.101-63.898,24.3c-1.501,2.1-2.401,4.2-4.2,6.301c-8.701,8.699-20.4,12.9-31.8,12.9   s-23.101-4.2-31.8-12.9c-17.401-17.701-17.401-46.199,0-63.9c17.699-17.401,46.199-17.401,63.6,0c7.5,7.5,10.8,16.8,11.999,26.4   c18.001-3.9,38.101-14.7,56.1-31.199V75.026h-63.3c1.8-2.1,3.6-4.2,5.7-6.299c37.8-37.5,80.7-46.8,95.7-31.8   c7.2,7.2,8.701,20.7,4.2,37.2c-5.099,19.199-18.3,40.499-36,58.2c-2.1,2.1-4.2,3.9-6.301,5.7v38.099   c9.6-6.299,18.602-13.799,27.301-22.5c21.599-21.599,37.2-47.1,44.099-71.699C515.947,54.626,511.448,30.927,496.147,15.626z    M294.847,238.526l-26.4,26.1c2.701,6,4.501,12.599,4.501,19.2c0,11.999-4.799,23.399-13.2,31.8l-21.301-21.301   c6.004-5.4,6.002-15.599,0-21c-5.7-5.698-15.599-5.698-21.299,0c-5.589,5.589-5.591,15.413,0,21   c17.699,17.701,17.699,46.201,0,63.9c-8.701,8.701-20.101,12.9-31.8,12.9c-6.301,0-12.9-1.8-18.9-4.499l-20.099,20.4   l-21.301-21.301l20.099-20.4c-7.8-16.5-5.4-36.899,8.401-51l21.299,21.301c-5.7,6-5.7,15.3,0,21.301c5.7,5.7,15.3,5.7,21.301,0   c5.435-6.039,5.82-14.837,0-21.301c-17.622-17.017-17.624-46.584,0-63.6c13.801-13.801,34.2-16.201,51-8.401l26.4-26.4   L294.847,238.526z"/>
</g>















</svg>
