<svg height="512" viewBox="0 0 192 192" width="512" xmlns="http://www.w3.org/2000/svg"><g id="_20-transmission" data-name="20-transmission"><path d="m96 0c-50.99 0-88 33.645-88 80 0 23.774 9.309 51.134 24.9 73.187 17.7 25.029 40.1 38.813 63.1 38.813s45.405-13.784 63.1-38.813c15.591-22.053 24.9-49.413 24.9-73.187 0-46.355-37.01-80-88-80zm50.036 143.95c-14.4 20.368-32.636 32.05-50.036 32.05s-35.636-11.682-50.036-32.05c-13.548-19.163-21.964-43.667-21.964-63.95 0-37.683 29.607-64 72-64s72 26.317 72 64c0 20.283-8.416 44.787-21.964 63.95z"/><path d="m136 64v24h-16v-24h-16v24h-16v-24h-16v24h-16v-24h-16v32a8 8 0 0 0 8 8h24v24h16v-24h16v24h16v-24h16v24h16v-64z"/></g></svg>