<svg height="464pt" viewBox="-16 0 464 464" width="464pt" xmlns="http://www.w3.org/2000/svg"><path d="m150.121094 288c3.269531-4.070312 7.046875-7.703125 11.207031-10.871094-6.953125-2.761718-12.886719-7.425781-17.296875-13.335937l-38.296875 16.128906 3.511719 8.078125zm0 0"/><path d="m200 376c26.472656 0 48-21.527344 48-48s-21.527344-48-48-48-48 21.527344-48 48 21.527344 48 48 48zm0-80c17.648438 0 32 14.351562 32 32 0 4.6875-1.070312 9.3125-3.175781 13.734375l-14.449219-6.886719c1.082031-2.253906 1.625-4.558594 1.625-6.847656 0-11.113281-11.921875-19.609375-22.839844-14.375l-6.886718-14.449219c4.414062-2.105469 9.039062-3.175781 13.726562-3.175781zm-28.824219 18.265625 14.449219 6.886719c-1.082031 2.253906-1.625 4.558594-1.625 6.847656 0 11.113281 11.929688 19.617188 22.839844 14.375l6.886718 14.449219c-4.414062 2.105469-9.039062 3.175781-13.726562 3.175781-17.648438 0-32-14.351562-32-32 0-4.6875 1.070312-9.3125 3.175781-13.734375zm0 0"/><path d="m290.046875 288c-1.328125-5.167969-2.046875-10.527344-2.046875-16 0-2.703125.222656-5.351562.550781-7.96875l-26.824219-11.296875c-3.773437 11.128906-12.183593 20.082031-23.054687 24.394531 4.160156 3.167969 7.9375 6.800782 11.207031 10.871094zm0 0"/><path d="m298.503906 352 12.039063-31.296875c-5.605469-4.773437-10.238281-10.445313-13.863281-16.703125h-37.390626c3.015626 7.414062 4.710938 15.511719 4.710938 24s-1.695312 16.585938-4.710938 24zm0 0"/><path d="m184 192c0 4.40625 3.59375 8 8 8h72v-16h-72c-4.40625 0-8 3.59375-8 8zm0 0"/><path d="m279.878906 126.847656 95.464844 40.191406 7.855469-18.0625-99.382813-41.847656 6.207032-14.753906 99.5625 41.921875 7.796874-17.9375-139.808593-55.917969-6.710938 15.4375 24.25 10.210938-6.210937 14.75-24.414063-10.28125-5.847656 13.441406h17.359375c12.839844 0 23.265625 10.160156 23.878906 22.847656zm0 0"/><path d="m137.199219 249.296875c-.199219-.847656-.375-1.695313-.519531-2.5625-6.609376-2.132813-12.007813-6.964844-14.726563-13.292969l-30.785156 12.957032 8.183593 18.824218zm0 0"/><path d="m77.273438 214.457031 7.511718 17.269531 35.214844-14.824218v-20.4375zm0 0"/><path d="m280 224c0 6.320312-2.503906 12.03125-6.511719 16.328125l19.085938 8.039063c2.601562-6.519532 6.234375-12.503907 10.707031-17.765626l-23.28125-9.808593zm0 0"/><path d="m264 128c0-4.40625-3.59375-8-8-8h-76.222656c-9.152344 0-17.378906 5.078125-21.464844 13.265625l-19.777344 39.550781c-1.664062 3.320313-2.535156 7.03125-2.535156 10.734375v40.449219c0 4.40625 3.59375 8 8 8h112c4.40625 0 8-3.59375 8-8v-8h-72c-13.230469 0-24-10.769531-24-24s10.769531-24 24-24h72zm-80 24h-16v-16h16zm32 0h-16v-16h16zm32 0h-16v-16h16zm0 0"/><path d="m176 264h48c10.414062 0 19.214844-6.710938 22.527344-16h-93.054688c3.3125 9.289062 12.113282 16 22.527344 16zm0 0"/><path d="m144 126.113281c6.816406-13.640625 20.527344-22.113281 35.777344-22.113281h13.582031l-5.839844-13.433594-138.71875 58.410156 7.855469 18.0625 84.710938-35.664062zm0 0"/><path d="m341.574219 208.929688-61.574219-25.929688v20.425781l36.496094 15.367188c7.414062-4.960938 15.929687-8.359375 25.078125-9.863281zm0 0"/><path d="m120.265625 179c.535156-4.632812 1.871094-9.167969 3.949219-13.335938l6.144531-12.296874-67.335937 28.351562 7.855468 18.066406zm0 0"/><path d="m353.777344 264c-2.601563 0-4.882813 1.566406-5.816406 3.992188l-38.464844 100.007812h-59.617188c-11.742187 14.609375-29.71875 24-49.878906 24-35.289062 0-64-28.710938-64-64 0-8.488281 1.695312-16.585938 4.710938-24h-68.710938c-4.40625 0-8 3.59375-8 8s3.59375 8 8 8h17.695312c16.785157 0 31.808594 10.007812 38.265626 25.503906l29.375 70.496094h36.144531c3.3125-9.289062 12.113281-16 22.527343-16 6.457032 0 12.296876 2.59375 16.617188 6.753906l27.808594-13.90625 7.160156 14.3125-27.875 13.9375c.105469.957032.28125 1.910156.28125 2.902344 0 13.230469-10.769531 24-24 24-10.414062 0-19.214844-6.710938-22.527344-16h-46.808594l-33.472656-80.335938c-3.96875-9.511718-13.191406-15.664062-23.496094-15.664062-7.757812 0-15 3.472656-19.847656 9.527344-4.855468 6.046875-6.671875 13.863281-4.992187 21.449218l21.558593 97.023438h227.273438l46.136719-192.230469c.121093-.480469.175781-.96875.175781-1.449219 0-3.527343-2.792969-6.320312-6.222656-6.320312zm-257.777344 104h-16v-16h16zm0 0"/><path d="m174.425781 60.449219-19.546875 7.816406-5.941406-14.851563 20.519531-8.207031c3.976563-1.597656 6.542969-5.382812 6.542969-9.664062 0-1.335938-.246094-2.632813-.742188-3.855469l-10.058593-25.152344c-2.085938-5.207031-8.335938-7.855468-13.511719-5.800781l-145.152344 58.074219c-3.96875 1.582031-6.535156 5.367187-6.535156 9.648437 0 1.335938.246094 2.632813.742188 3.855469l10.058593 25.152344c2.085938 5.207031 8.34375 7.878906 13.511719 5.800781l108.710938-43.488281 5.945312 14.855468-104.34375 41.734376 7.789062 17.929687 138.722657-58.410156zm0 0"/><path d="m224 424c0 4.417969-3.582031 8-8 8s-8-3.582031-8-8 3.582031-8 8-8 8 3.582031 8 8zm0 0"/><path d="m352 224c-26.472656 0-48 21.527344-48 48 0 12.207031 4.65625 23.761719 12.761719 32.535156l16.261719-42.289062c3.28125-8.519532 11.617187-14.246094 20.753906-14.246094 12.246094 0 22.222656 9.976562 22.222656 22.222656 0 1.832032-.207031 3.585938-.617188 5.289063l-10.222656 42.609375c20.078125-5.738282 34.839844-24.21875 34.839844-46.121094 0-26.472656-21.527344-48-48-48zm0 0"/><path d="m368.960938 181.71875-88.960938-37.453125v21.367187l81.113281 34.152344zm0 0"/><path d="m425.464844 58.808594-145.144532-58.066406c-1.230468-.496094-2.527343-.742188-3.863281-.742188-4.28125 0-8.066406 2.566406-9.65625 6.535156l-10.058593 25.144532c-.496094 1.230468-.742188 2.527343-.742188 3.863281 0 4.28125 2.566406 8.066406 6.535156 9.65625l145.152344 58.058593c5.191406 2.085938 11.433594-.585937 13.511719-5.792968l10.058593-25.152344c.496094-1.222656.742188-2.519531.742188-3.855469 0-4.28125-2.566406-8.066406-6.535156-9.648437zm0 0"/></svg>