<?xml version="1.0" encoding="iso-8859-1"?>
<!-- Generator: Adobe Illustrator 19.0.0, SVG Export Plug-In . SVG Version: 6.00 Build 0)  -->
<svg version="1.1" id="Capa_1" xmlns="http://www.w3.org/2000/svg" xmlns:xlink="http://www.w3.org/1999/xlink" x="0px" y="0px"
	 viewBox="0 0 490.688 490.688" style="enable-background:new 0 0 490.688 490.688;" xml:space="preserve">
<g>
	<g>
		<path d="M447.936,169.653c-6.08-62.912-17.749-139.605-38.827-147.605c-20.032-7.616-139.733-10.816-164.032-11.371
			c-23.787,0.555-143.488,3.755-163.541,11.392c-21.077,8-32.747,84.672-38.827,147.605c-0.576,5.845,3.733,11.072,9.6,11.627
			c5.845,0.597,11.093-3.712,11.648-9.6c5.44-56.469,17.28-122.304,25.173-129.728c12.821-4.864,102.763-8.683,155.947-9.963
			c53.696,1.28,143.637,5.099,155.413,9.408c8.939,8,20.779,73.813,26.219,130.283c0.533,5.525,5.184,9.643,10.603,9.643
			c0.363,0,0.683-0.021,1.024-0.064C444.203,180.725,448.491,175.52,447.936,169.653z"/>
	</g>
</g>
<g>
	<g>
		<path d="M53.333,160.011v-21.333c5.888,0,10.667-4.779,10.667-10.667s-4.779-10.667-10.667-10.667H10.667
			C4.779,117.344,0,122.123,0,128.011v42.667c0,5.888,4.779,10.667,10.667,10.667h42.667c5.888,0,10.667-4.779,10.667-10.667
			S59.221,160.011,53.333,160.011z"/>
	</g>
</g>
<g>
	<g>
		<path d="M480,117.344h-42.667c-5.888,0-10.667,4.779-10.667,10.667s4.779,10.667,10.667,10.667v21.333
			c-5.888,0-10.667,4.779-10.667,10.667s4.779,10.667,10.667,10.667H480c5.888,0,10.667-4.779,10.667-10.667v-42.667
			C490.667,122.123,485.888,117.344,480,117.344z"/>
	</g>
</g>
<g>
	<g>
		<path d="M486.229,367.008c-2.773-2.005-6.357-2.603-9.6-1.451l-18.496,6.165c-3.285,1.067-6.699,1.621-10.133,1.621h-41.344
			c-4.885,0-9.173,3.328-10.347,8.085l-2.581,10.347c-1.216,4.885-3.584,9.344-7.061,13.312c-1.707,1.941-2.645,4.437-2.645,7.04
			v35.883c0,17.643,14.357,32,32,32h42.667c17.643,0,32-14.357,32-32v-72.363C490.667,372.235,489.024,369.013,486.229,367.008z"/>
	</g>
</g>
<g>
	<g>
		<path d="M104.021,405.088c-3.477-3.947-5.845-8.427-7.061-13.312l-2.581-10.347c-1.195-4.757-5.461-8.085-10.368-8.085H42.667
			c-3.435,0-6.848-0.555-10.133-1.643l-18.496-6.165c-3.264-1.131-6.827-0.533-9.6,1.451C1.643,369.013,0,372.235,0,375.648v72.363
			c0,17.643,14.357,32,32,32h42.667c17.643,0,32-14.357,32-32v-35.883C106.667,409.525,105.728,407.029,104.021,405.088z"/>
	</g>
</g>
<g>
	<g>
		<circle cx="138.667" cy="213.344" r="10.667"/>
	</g>
</g>
<g>
	<g>
		<path d="M482.581,202.997L448,194.336v-23.659c0-1.621-0.405-3.115-1.045-4.48c-0.043-0.085-0.021-0.192-0.064-0.299
			l-10.667-21.333c-1.536-3.093-4.48-5.227-7.872-5.781c-5.611-0.853-137.067-21.44-183.019-21.44S67.925,137.931,62.336,138.805
			c-3.392,0.533-6.336,2.688-7.872,5.76l-10.667,21.333c-0.725,1.493-1.131,3.115-1.131,4.779v23.659l-34.581,8.661
			C3.328,204.192,0,208.459,0,213.344v53.333h490.667v-53.333C490.667,208.459,487.339,204.192,482.581,202.997z M138.667,245.344
			c-17.643,0-32-14.357-32-32s14.357-32,32-32c17.643,0,32,14.357,32,32S156.309,245.344,138.667,245.344z M213.333,245.344
			c0,5.888-4.779,10.667-10.667,10.667S192,251.232,192,245.344v-32c0-5.888,4.779-10.667,10.667-10.667s10.667,4.779,10.667,10.667
			V245.344z M256,245.344c0,5.888-4.779,10.667-10.667,10.667s-10.667-4.779-10.667-10.667v-32c0-5.888,4.779-10.667,10.667-10.667
			S256,207.456,256,213.344V245.344z M298.667,245.344c0,5.888-4.779,10.667-10.667,10.667s-10.667-4.779-10.667-10.667v-32
			c0-5.888,4.779-10.667,10.667-10.667s10.667,4.779,10.667,10.667V245.344z M352,245.344c-17.643,0-32-14.357-32-32
			s14.357-32,32-32s32,14.357,32,32S369.643,245.344,352,245.344z"/>
	</g>
</g>
<g>
	<g>
		<circle cx="352" cy="213.344" r="10.667"/>
	</g>
</g>
<g>
	<g>
		<path d="M0,288.011v42.667c0,4.587,2.944,8.661,7.296,10.112l32,10.667c1.088,0.363,2.219,0.555,3.371,0.555h66.325l8.64,34.581
			c1.195,4.757,5.483,8.085,10.368,8.085h234.667c4.885,0,9.173-3.328,10.347-8.085l8.661-34.581H448
			c1.152,0,2.283-0.192,3.371-0.555l32-10.667c4.352-1.451,7.296-5.525,7.296-10.112v-42.667H0z M160,362.677
			c-11.776,0-21.333-9.579-21.333-21.333s9.557-21.333,21.333-21.333s21.333,9.579,21.333,21.333S171.776,362.677,160,362.677z
			 M330.667,362.677c-11.776,0-21.333-9.579-21.333-21.333s9.557-21.333,21.333-21.333c11.776,0,21.333,9.579,21.333,21.333
			S342.443,362.677,330.667,362.677z"/>
	</g>
</g>
<g>
</g>
<g>
</g>
<g>
</g>
<g>
</g>
<g>
</g>
<g>
</g>
<g>
</g>
<g>
</g>
<g>
</g>
<g>
</g>
<g>
</g>
<g>
</g>
<g>
</g>
<g>
</g>
<g>
</g>
</svg>
