<?xml version="1.0" encoding="iso-8859-1"?>
<!-- Generator: Adobe Illustrator 17.1.0, SVG Export Plug-In . SVG Version: 6.00 Build 0)  -->
<!DOCTYPE svg PUBLIC "-//W3C//DTD SVG 1.1//EN" "http://www.w3.org/Graphics/SVG/1.1/DTD/svg11.dtd">
<svg version="1.1" id="Capa_1" xmlns="http://www.w3.org/2000/svg" xmlns:xlink="http://www.w3.org/1999/xlink" x="0px" y="0px"
	 viewBox="0 0 258.301 258.301" style="enable-background:new 0 0 258.301 258.301;" xml:space="preserve">
<g>
	<path style="stroke:#000000;stroke-width:0.1987;stroke-miterlimit:10;" d="M249.004,72.075c-0.974,0-1.972,0.14-2.969,0.414
		l-11.278,3.106l-11.712-28.531c-3.318-8.082-13.127-14.657-21.863-14.657H91.573c-8.737,0-18.545,6.575-21.862,14.657
		L58.013,75.556l-11.137-3.067c-0.997-0.274-1.995-0.414-2.969-0.414c-5.33,0-9.198,4.072-9.198,9.683v6.649
		c0,0.272,0.023,0.54,0.041,0.808c-4.643,2.927-9.001,6.375-12.976,10.351C7.798,113.542,0.099,132.126,0.099,151.892
		c0,19.768,7.698,38.351,21.675,52.326c13.976,13.978,32.559,21.676,52.326,21.676s38.351-7.698,52.328-21.676
		c8.147-8.146,14.143-17.865,17.741-28.465h68.938v14.154c0,6.549,5.328,11.877,11.877,11.877h15.511
		c6.549,0,11.877-5.328,11.877-11.877v-56.68c0-8.119-2.508-20.832-5.591-28.34l-1.891-4.604h1.434
		c6.549,0,11.877-5.328,11.877-11.877v-6.649C258.202,76.147,254.334,72.075,249.004,72.075z M84.247,50.679
		c1.984-4.835,7.884-8.79,13.11-8.79h98.041c5.227,0,11.126,3.956,13.11,8.79l17.717,43.154c1.984,4.834-0.667,8.79-5.893,8.79
		h-91.024c-0.931-1.04-1.884-2.063-2.879-3.059C112.45,85.588,93.867,77.89,74.1,77.89c-0.346,0-0.688,0.021-1.034,0.025
		L84.247,50.679z M74.1,203.745c-13.85,0-26.87-5.394-36.664-15.188c-9.794-9.793-15.187-22.813-15.187-36.664
		s5.394-26.871,15.187-36.665c9.794-9.793,22.814-15.187,36.664-15.187c13.851,0,26.872,5.394,36.666,15.187
		c9.793,9.794,15.187,22.814,15.187,36.665s-5.393,26.871-15.187,36.664C100.971,198.35,87.951,203.745,74.1,203.745z
		 M229.511,148.418c0,2.613-2.138,4.751-4.751,4.751h-33.652c-2.613,0-4.751-2.138-4.751-4.751v-16.152
		c0-2.613,2.138-4.751,4.751-4.751h33.652c2.613,0,4.751,2.138,4.751,4.751V148.418z"/>
	<path style="stroke:#000000;stroke-width:0.1987;stroke-miterlimit:10;" d="M99.838,163.277H48.367
		c-0.548,0-0.994,0.447-0.994,0.992v24.604c0,0.546,0.446,0.993,0.994,0.993h19.828c0.547,0,1.039-0.444,1.094-0.988l2.839-8.131
		c0.067-0.541,0.79-0.546,0.88-0.007l3.1,8.144c0.085,0.54,0.601,0.982,1.147,0.982h0.807c0.547,0,1.035-0.445,1.085-0.99
		l3.189-12.764c0.062-0.543,0.783-0.546,0.875-0.007l3.723,12.778c0.079,0.54,0.592,0.982,1.139,0.982h0.505
		c0.545,0,1.057-0.442,1.136-0.982l0.365-4.699c0.144-0.527,0.813-0.539,1.002-0.026l1.84,4.738c0.118,0.532,0.663,0.97,1.209,0.97
		h5.708c0.548,0,0.994-0.447,0.994-0.993v-24.604C100.832,163.724,100.385,163.277,99.838,163.277z"/>
	<path style="stroke:#000000;stroke-width:0.1987;stroke-miterlimit:10;" d="M99.838,141.946h-19.15
		c0.017-0.108,0.033-0.217,0.033-0.329l1.742-30.623c0-1.177-0.962-2.14-2.139-2.14H67.881c-1.177,0-2.139,0.963-2.139,2.14
		l1.742,30.623c0,0.112,0.017,0.221,0.033,0.329h-19.15c-0.548,0-0.994,0.448-0.994,0.994v10.518c0,0.547,0.446,0.994,0.994,0.994
		h51.471c0.548,0,0.994-0.447,0.994-0.994V142.94C100.832,142.394,100.385,141.946,99.838,141.946z"/>
</g>
<g>
</g>
<g>
</g>
<g>
</g>
<g>
</g>
<g>
</g>
<g>
</g>
<g>
</g>
<g>
</g>
<g>
</g>
<g>
</g>
<g>
</g>
<g>
</g>
<g>
</g>
<g>
</g>
<g>
</g>
</svg>
