<?xml version="1.0" encoding="iso-8859-1"?>
<!-- Generator: Adobe Illustrator 18.0.0, SVG Export Plug-In . SVG Version: 6.00 Build 0)  -->
<!DOCTYPE svg PUBLIC "-//W3C//DTD SVG 1.1//EN" "http://www.w3.org/Graphics/SVG/1.1/DTD/svg11.dtd">
<svg version="1.1" id="Capa_1" xmlns="http://www.w3.org/2000/svg" xmlns:xlink="http://www.w3.org/1999/xlink" x="0px" y="0px"
	 viewBox="0 0 490.295 490.295" style="enable-background:new 0 0 490.295 490.295;" xml:space="preserve">
<g id="XMLID_57_">
	<path id="XMLID_67_" d="M477.015,148.894h-38.167c-7.133,0-12.828,5.647-13.17,12.688c-1.064-4.128-1.846-8.321-3.068-12.409
		l-23.17-76.988c4.469-2.994,7.586-7.841,7.586-13.626c0-9.228-7.475-16.711-16.711-16.711h-2.25
		c-9.025-21.589-69.48-38.29-142.916-38.29c-73.414,0-133.889,16.701-142.914,38.29h-2.25c-9.238,0-16.709,7.482-16.709,16.711
		c0,5.785,3.116,10.632,7.586,13.626l-23.17,76.988c-1.227,4.088-2.01,8.281-3.068,12.409c-0.342-7.04-6.039-12.688-13.17-12.688
		H13.285C5.939,148.894,0,154.843,0,162.177v15.38c0,7.337,5.939,13.284,13.285,13.284H35.77l16.663,18.667
		c5.089,0.768,10.376,1.33,15.21,2.311C195.135,237.674,235.309,335.6,245.148,367.542
		c10.133-32.881,52.725-135.434,189.275-157.545c1.125-0.18,2.303-0.317,3.445-0.489l16.66-18.667h22.485
		c7.341,0,13.28-5.947,13.28-13.284v-15.38C490.295,154.843,484.355,148.894,477.015,148.894z M230.203,194.324
		c0,10.19-8.256,18.457-18.457,18.457h-92.344c-5.484,0-10.689-2.441-14.198-6.659c-3.488-4.21-4.942-9.775-3.948-15.159
		l16.839-90.852c1.632-8.746,9.254-15.094,18.163-15.094h75.488c10.201,0,18.457,8.264,18.457,18.454V194.324z M385.097,206.131
		c-3.509,4.209-8.716,6.65-14.198,6.65h-92.314c-10.194,0-18.457-8.267-18.457-18.457v-90.853c0-10.19,8.263-18.454,18.457-18.454
		h75.49c8.892,0,16.531,6.348,18.145,15.094l16.824,90.852C390.055,196.355,388.604,201.912,385.097,206.131z"/>
	<path id="XMLID_63_" d="M434.26,270.123c1.453-14.46,1.52-28.941,0.945-43.392C304.449,248.818,267.49,349.583,260.242,375.129
		h163.492L434.26,270.123z M368.662,343.324c-15.565,0-28.197-12.62-28.197-28.196c0-15.575,12.632-28.198,28.197-28.198
		c15.566,0,28.199,12.623,28.199,28.198C396.861,330.704,384.229,343.324,368.662,343.324z M407.611,279.962
		c-5.953,0-10.785-4.831-10.785-10.795c0-5.963,4.832-10.794,10.785-10.794c5.959,0,10.787,4.831,10.787,10.794
		C418.398,275.131,413.57,279.962,407.611,279.962z"/>
	<path id="XMLID_59_" d="M230.119,375.129c-6.9-25.65-42.477-126.302-175.029-148.429c-0.568,14.457-0.502,28.956,0.947,43.423
		l10.525,105.006H230.119z M121.64,286.93c15.565,0,28.197,12.623,28.197,28.198c0,15.576-12.632,28.196-28.197,28.196
		c-15.568,0-28.2-12.62-28.2-28.196C93.439,299.553,106.071,286.93,121.64,286.93z M82.684,258.373
		c5.958,0,10.788,4.831,10.788,10.794c0,5.964-4.83,10.795-10.788,10.795c-5.953,0-10.781-4.831-10.781-10.795
		C71.902,263.204,76.73,258.373,82.684,258.373z"/>
	<path id="XMLID_58_" d="M423.734,392.052H66.563c-9.236,0-16.711,7.481-16.711,16.71c0,9.228,7.475,16.709,16.711,16.709h32.377
		v42.811c0,10.19,8.258,18.456,18.458,18.456h40.367c10.199,0,18.457-8.266,18.457-18.456v-42.811H314.08v42.811
		c0,10.19,8.256,18.456,18.451,18.456h40.373c10.199,0,18.457-8.266,18.457-18.456v-42.811h32.373
		c9.239,0,16.709-7.481,16.709-16.709C440.443,399.533,432.974,392.052,423.734,392.052z"/>
</g>
<g>
</g>
<g>
</g>
<g>
</g>
<g>
</g>
<g>
</g>
<g>
</g>
<g>
</g>
<g>
</g>
<g>
</g>
<g>
</g>
<g>
</g>
<g>
</g>
<g>
</g>
<g>
</g>
<g>
</g>
</svg>
